<svg xmlns="http://www.w3.org/2000/svg" xmlns:xlink="http://www.w3.org/1999/xlink" contentStyleType="text/css" data-diagram-type="DESCRIPTION" height="1244px" preserveAspectRatio="none" style="width:1250px;height:1244px;background:#FFFFFF;" version="1.1" viewBox="0 0 1250 1244" width="1250px" zoomAndPan="magnify"><?plantuml 1.2026.4?><defs/><g><g class="title" data-source-line="1"><text fill="#000000" font-family="Arial" font-size="14" font-weight="700" lengthAdjust="spacing" textLength="331.1602" x="456.2057" y="22.9951">&#1044;&#1080;&#1072;&#1075;&#1088;&#1072;&#1084;&#1084;&#1072; &#1088;&#1072;&#1079;&#1074;&#1077;&#1088;&#1090;&#1099;&#1074;&#1072;&#1085;&#1080;&#1103; RAG-&#1089;&#1080;&#1089;&#1090;&#1077;&#1084;&#1099;</text></g><!--cluster host--><g class="cluster" data-qualified-name="host" data-source-line="40" id="ent0002"><polygon fill="#F8FAFC" points="16,176.3769,26,166.3769,954,166.3769,954,896.3669,944,906.3669,16,906.3669,16,176.3769" style="stroke:#2563EB;stroke-width:1;stroke-linejoin:miter;stroke-miterlimit:10;"/><line style="stroke:#2563EB;stroke-width:1;" x1="944" x2="954" y1="176.3769" y2="166.3769"/><line style="stroke:#2563EB;stroke-width:1;" x1="16" x2="944" y1="176.3769" y2="176.3769"/><line style="stroke:#2563EB;stroke-width:1;" x1="944" x2="944" y1="176.3769" y2="906.3669"/><text fill="#0F172A" font-family="Arial" font-size="17" font-weight="700" lengthAdjust="spacing" textLength="174.0093" x="393.9954" y="195.1567">&#1061;&#1086;&#1089;&#1090;&#1086;&#1074;&#1072;&#1103; &#1084;&#1072;&#1096;&#1080;&#1085;&#1072;</text><text fill="#0F172A" font-family="Arial" font-size="17" font-weight="700" lengthAdjust="spacing" textLength="138.3491" x="411.8254" y="214.9457">Docker Engine</text></g><!--cluster network--><g class="cluster" data-qualified-name="host.network" data-source-line="41" id="ent0003"><polygon fill="#F8FAFC" points="48,255.3769,58,245.3769,914,245.3769,914,632.0569,904,642.0569,48,642.0569,48,255.3769" style="stroke:#2563EB;stroke-width:1;stroke-linejoin:miter;stroke-miterlimit:10;"/><line style="stroke:#2563EB;stroke-width:1;" x1="904" x2="914" y1="255.3769" y2="245.3769"/><line style="stroke:#2563EB;stroke-width:1;" x1="48" x2="904" y1="255.3769" y2="255.3769"/><line style="stroke:#2563EB;stroke-width:1;" x1="904" x2="904" y1="255.3769" y2="642.0569"/><text fill="#0F172A" font-family="Arial" font-size="17" font-weight="700" lengthAdjust="spacing" textLength="236.8379" x="358.5811" y="274.1567">Docker-&#1089;&#1077;&#1090;&#1100;: rag-system</text></g><!--entity volumes--><g class="entity" data-qualified-name="host.volumes" data-source-line="51" id="ent0008"><path d="M352.42,686.0569 L393.42,686.0569 A3.75,3.75 0 0 1 395.92,688.5569 L402.92,707.0569 L597.5816,707.0569 A2.5,2.5 0 0 1 600.0816,709.5569 L600.0816,879.8694 A2.5,2.5 0 0 1 597.5816,882.3694 L352.42,882.3694 A2.5,2.5 0 0 1 349.92,879.8694 L349.92,688.5569 A2.5,2.5 0 0 1 352.42,686.0569" fill="#FFFFFF" style="stroke:#475569;stroke-width:0.5;"/><line style="stroke:#475569;stroke-width:0.5;" x1="349.92" x2="402.92" y1="707.0569" y2="707.0569"/><text fill="#0F172A" font-family="Arial" font-size="17" lengthAdjust="spacing" textLength="137.3696" x="359.92" y="729.8367">Docker volumes</text><text fill="#0F172A" font-family="Arial" font-size="17" lengthAdjust="spacing" textLength="5.4038" x="359.92" y="749.6257">&#160;</text><text fill="#0F172A" font-family="Arial" font-size="17" lengthAdjust="spacing" textLength="220.1616" x="359.92" y="769.4148">rag-system-postgres-data</text><text fill="#0F172A" font-family="Arial" font-size="17" lengthAdjust="spacing" textLength="103.2202" x="359.92" y="789.2038">qdrant_data</text><text fill="#0F172A" font-family="Arial" font-size="17" lengthAdjust="spacing" textLength="93.9731" x="359.92" y="808.9929">minio_data</text><text fill="#0F172A" font-family="Arial" font-size="17" lengthAdjust="spacing" textLength="75.6035" x="359.92" y="828.782">hf_cache</text><text fill="#0F172A" font-family="Arial" font-size="17" lengthAdjust="spacing" textLength="199.9741" x="359.92" y="848.571">graylog_mongodb_data</text><text fill="#0F172A" font-family="Arial" font-size="17" lengthAdjust="spacing" textLength="138.7808" x="359.92" y="868.3601">graylog_es_data</text></g><!--entity app_tier--><g class="entity" data-qualified-name="host.network.app_tier" data-source-line="42" id="ent0004"><polygon fill="#F8FAFC" points="505.52,298.3769,515.52,288.3769,736.4712,288.3769,736.4712,407.3222,726.4712,417.3222,505.52,417.3222,505.52,298.3769" style="stroke:#2563EB;stroke-width:0.5;stroke-linejoin:miter;stroke-miterlimit:10;"/><line style="stroke:#2563EB;stroke-width:0.5;" x1="726.4712" x2="736.4712" y1="298.3769" y2="288.3769"/><line style="stroke:#2563EB;stroke-width:0.5;" x1="505.52" x2="726.4712" y1="298.3769" y2="298.3769"/><line style="stroke:#2563EB;stroke-width:0.5;" x1="726.4712" x2="726.4712" y1="298.3769" y2="417.3222"/><text fill="#0F172A" font-family="Arial" font-size="17" lengthAdjust="spacing" textLength="190.9512" x="520.52" y="324.1567">&#1059;&#1088;&#1086;&#1074;&#1077;&#1085;&#1100; &#1087;&#1088;&#1080;&#1083;&#1086;&#1078;&#1077;&#1085;&#1080;&#1103;</text><text fill="#0F172A" font-family="Arial" font-size="17" lengthAdjust="spacing" textLength="5.4038" x="520.52" y="343.9457">&#160;</text><text fill="#0F172A" font-family="Arial" font-size="17" lengthAdjust="spacing" textLength="174.7646" x="520.52" y="363.7348">rag-system-frontend</text><text fill="#0F172A" font-family="Arial" font-size="17" lengthAdjust="spacing" textLength="127.8569" x="520.52" y="383.5238">rag-system-api</text><text fill="#0F172A" font-family="Arial" font-size="17" lengthAdjust="spacing" textLength="160.5122" x="520.52" y="403.3129">rag-system-worker</text></g><!--entity data_tier--><g class="entity" data-qualified-name="host.network.data_tier" data-source-line="44" id="ent0005"><path d="M63.55,487.8269 C63.55,477.8269 189.0014,477.8269 189.0014,477.8269 C189.0014,477.8269 314.4528,477.8269 314.4528,487.8269 L314.4528,615.5612 C314.4528,625.5612 189.0014,625.5612 189.0014,625.5612 C189.0014,625.5612 63.55,625.5612 63.55,615.5612 L63.55,487.8269" fill="#ECFDF5" style="stroke:#059669;stroke-width:0.5;"/><path d="M63.55,487.8269 C63.55,497.8269 189.0014,497.8269 189.0014,497.8269 C189.0014,497.8269 314.4528,497.8269 314.4528,487.8269" fill="none" style="stroke:#059669;stroke-width:0.5;"/><text fill="#0F172A" font-family="Arial" font-size="17" lengthAdjust="spacing" textLength="230.9028" x="73.55" y="517.6067">&#1059;&#1088;&#1086;&#1074;&#1077;&#1085;&#1100; &#1076;&#1072;&#1085;&#1085;&#1099;&#1093; &#1080; &#1087;&#1086;&#1080;&#1089;&#1082;&#1072;</text><text fill="#0F172A" font-family="Arial" font-size="17" lengthAdjust="spacing" textLength="5.4038" x="73.55" y="537.3957">&#160;</text><text fill="#0F172A" font-family="Arial" font-size="17" lengthAdjust="spacing" textLength="175.7358" x="73.55" y="557.1848">rag-system-postgres</text><text fill="#0F172A" font-family="Arial" font-size="17" lengthAdjust="spacing" textLength="158.354" x="73.55" y="576.9738">rag-system-qdrant</text><text fill="#0F172A" font-family="Arial" font-size="17" lengthAdjust="spacing" textLength="149.1069" x="73.55" y="596.7629">rag-system-minio</text><text fill="#0F172A" font-family="Arial" font-size="17" lengthAdjust="spacing" textLength="136.6724" x="73.55" y="616.552">rag-system-files</text></g><!--entity ai_tier--><g class="entity" data-qualified-name="host.network.ai_tier" data-source-line="46" id="ent0006"><polygon fill="#F8FAFC" points="349.37,497.2169,359.37,487.2169,600.6332,487.2169,600.6332,606.1622,590.6332,616.1622,349.37,616.1622,349.37,497.2169" style="stroke:#2563EB;stroke-width:0.5;stroke-linejoin:miter;stroke-miterlimit:10;"/><line style="stroke:#2563EB;stroke-width:0.5;" x1="590.6332" x2="600.6332" y1="497.2169" y2="487.2169"/><line style="stroke:#2563EB;stroke-width:0.5;" x1="349.37" x2="590.6332" y1="497.2169" y2="497.2169"/><line style="stroke:#2563EB;stroke-width:0.5;" x1="590.6332" x2="590.6332" y1="497.2169" y2="616.1622"/><text fill="#0F172A" font-family="Arial" font-size="17" lengthAdjust="spacing" textLength="211.2632" x="364.37" y="522.9967">&#1059;&#1088;&#1086;&#1074;&#1077;&#1085;&#1100; &#1086;&#1073;&#1088;&#1072;&#1073;&#1086;&#1090;&#1082;&#1080; &#1080; AI</text><text fill="#0F172A" font-family="Arial" font-size="17" lengthAdjust="spacing" textLength="5.4038" x="364.37" y="542.7857">&#160;</text><text fill="#0F172A" font-family="Arial" font-size="17" lengthAdjust="spacing" textLength="163.4756" x="364.37" y="562.5748">rag-system-docling</text><text fill="#0F172A" font-family="Arial" font-size="17" lengthAdjust="spacing" textLength="198.0649" x="364.37" y="582.3638">rag-system-embedding</text><text fill="#0F172A" font-family="Arial" font-size="17" lengthAdjust="spacing" textLength="127.9316" x="364.37" y="602.1529">rag-system-llm</text></g><!--entity obs_tier--><g class="entity" data-qualified-name="host.network.obs_tier" data-source-line="48" id="ent0007"><polygon fill="#F8FAFC" points="636.04,487.3269,646.04,477.3269,897.9531,477.3269,897.9531,616.0612,887.9531,626.0612,636.04,626.0612,636.04,487.3269" style="stroke:#2563EB;stroke-width:0.5;stroke-linejoin:miter;stroke-miterlimit:10;"/><line style="stroke:#2563EB;stroke-width:0.5;" x1="887.9531" x2="897.9531" y1="487.3269" y2="477.3269"/><line style="stroke:#2563EB;stroke-width:0.5;" x1="636.04" x2="887.9531" y1="487.3269" y2="487.3269"/><line style="stroke:#2563EB;stroke-width:0.5;" x1="887.9531" x2="887.9531" y1="487.3269" y2="626.0612"/><text fill="#0F172A" font-family="Arial" font-size="17" lengthAdjust="spacing" textLength="221.9131" x="651.04" y="513.1067">&#1059;&#1088;&#1086;&#1074;&#1077;&#1085;&#1100; &#1085;&#1072;&#1073;&#1083;&#1102;&#1076;&#1072;&#1077;&#1084;&#1086;&#1089;&#1090;&#1080;</text><text fill="#0F172A" font-family="Arial" font-size="17" lengthAdjust="spacing" textLength="5.4038" x="651.04" y="532.8957">&#160;</text><text fill="#0F172A" font-family="Arial" font-size="17" lengthAdjust="spacing" textLength="64.1733" x="651.04" y="552.6848">graylog</text><text fill="#0F172A" font-family="Arial" font-size="17" lengthAdjust="spacing" textLength="150.8169" x="651.04" y="572.4738">graylog-mongodb</text><text fill="#0F172A" font-family="Arial" font-size="17" lengthAdjust="spacing" textLength="182.3433" x="651.04" y="592.2629">graylog-elasticsearch</text><text fill="#0F172A" font-family="Arial" font-size="17" lengthAdjust="spacing" textLength="199.1191" x="651.04" y="612.052">rag-system-graylog-init</text></g><!--entity user--><g class="entity" data-qualified-name="user" data-source-line="38" id="ent0001"><ellipse cx="620.9962" cy="51.2969" fill="#F1F1F1" rx="8" ry="8" style="stroke:#181818;stroke-width:0.5;"/><path d="M620.9962,59.2969 L620.9962,86.2969 M607.9962,67.2969 L633.9962,67.2969 M620.9962,86.2969 L607.9962,101.2969 M620.9962,86.2969 L633.9962,101.2969" fill="none" style="stroke:#181818;stroke-width:0.5;"/><text fill="#000000" font-family="Arial" font-size="17" lengthAdjust="spacing" textLength="125.1924" x="558.4" y="118.5767">&#1055;&#1086;&#1083;&#1100;&#1079;&#1086;&#1074;&#1072;&#1090;&#1077;&#1083;&#1100;</text><text fill="#000000" font-family="Arial" font-size="17" lengthAdjust="spacing" textLength="72.0425" x="558.4" y="138.3657">&#1073;&#1088;&#1072;&#1091;&#1079;&#1077;&#1088;</text></g><!--entity cloud_ai--><g class="entity" data-qualified-name="cloud_ai" data-source-line="54" id="ent0009"><path d="M994.5184,507.0827 C998.815,499.041 1004.1529,498.5475 1009.5916,505.9695 C1013.9765,498.1525 1021.4308,497.7868 1025.8191,505.966 C1030.6162,498.0057 1036.0551,495.0424 1043.2258,503.4402 C1046.9402,496.891 1052.406,496.3349 1057.4177,501.9233 C1062.1235,494.5376 1066.8884,493.8579 1072.4268,501.067 C1077.0948,492.5083 1083.3045,493.7607 1088.3742,500.6525 C1093.8499,492.7448 1099.2139,492.4404 1104.9923,500.3342 C1109.3283,492.9006 1115.3123,493.0622 1120.7625,499.0223 C1126.4441,493.4429 1132.9759,493.6687 1136.214,501.7801 C1140.9885,494.8106 1145.7462,494.1843 1151.1979,501.0464 C1157.6385,494.1138 1165.6958,496.3438 1168.8983,504.7766 C1171.8899,497.8599 1178.2059,497.0688 1182.3822,503.5877 C1189.4575,496.2403 1195.5729,498.4888 1199.352,507.0941 C1208.2528,497.9946 1215.6231,502.3093 1219.903,512.1169 C1221.659,512.0202 1222.5172,513.2859 1221.4839,514.8203 C1231.471,518.4759 1232.8368,526.9987 1224.749,533.7689 C1234.5052,539.3776 1233.1845,545.7488 1226.033,552.5155 C1235.5716,558.663 1235.1601,567.9439 1225.471,573.5783 C1234.6546,587.3258 1230.1156,597.9595 1212.903,598.2731 C1213.7598,597.4267 1214.8993,597.6054 1215.2178,598.8648 C1209.2457,607.2114 1203.7782,608.6568 1197.3677,599.3071 C1193.7222,605.9433 1189.8951,606.7568 1184.5077,601.1344 C1179.09,608.9602 1174.1327,609.817 1168.1732,601.6892 C1162.7365,608.7563 1157.8508,609.2322 1152.7718,601.3214 C1148.3221,611.4761 1142.5167,612.2407 1135.612,603.5577 C1131.1531,610.3268 1125.0114,610.4073 1120.5909,603.5156 C1116.241,612.1164 1109.4043,612.4985 1103.5517,605.1178 C1097.6037,610.8218 1093.5002,609.8916 1090.3437,602.337 C1085.729,610.8318 1079.3695,612.3375 1073.4887,603.5734 C1068.4383,610.8444 1063.2409,611.1101 1058.5645,603.2056 C1051.8147,609.963 1045.8866,609.6379 1041.9614,600.2931 C1037.0433,609.5632 1031.3814,610.5833 1024.7721,601.9135 C1019.9861,609.1197 1013.613,608.3425 1009.2934,601.4033 C997.627,608.9567 987.9157,606.26 986.09,591.2731 C988.1264,590.7027 989.1302,591.5173 989.12,593.6055 C977.3448,589.8935 976.1247,582.7207 982.4146,573.101 C973.0495,568.7501 969.0959,563.7359 977.3212,554.5542 C968.521,546.5429 970.1675,538.7905 981.4443,535.0161 C971.0784,519.0764 975.182,510.0439 993.09,505.1169 C994.5303,504.9285 995.1271,505.7823 994.5184,507.0827" fill="#F1F5F9" style="stroke:#64748B;stroke-width:0.5;"/><text fill="#0F172A" font-family="Arial" font-size="17" lengthAdjust="spacing" textLength="219.813" x="993.09" y="527.8967">&#1042;&#1085;&#1077;&#1096;&#1085;&#1080;&#1077; AI-&#1087;&#1088;&#1086;&#1074;&#1072;&#1081;&#1076;&#1077;&#1088;&#1099;</text><text fill="#0F172A" font-family="Arial" font-size="17" lengthAdjust="spacing" textLength="5.4038" x="993.09" y="547.6857">&#160;</text><text fill="#0F172A" font-family="Arial" font-size="17" lengthAdjust="spacing" textLength="65.9082" x="993.09" y="567.4748">LLM API</text><text fill="#0F172A" font-family="Arial" font-size="17" lengthAdjust="spacing" textLength="128.7202" x="993.09" y="587.2638">Embedding API</text></g><g class="entity" data-qualified-name="GMN19" data-source-line="68" id="ent0020"><path d="M94.59,942.3669 L94.59,1229.4138 A0,0 0 0 0 94.59,1229.4138 L855.4137,1229.4138 A0,0 0 0 0 855.4137,1229.4138 L855.4137,952.3669 L845.4137,942.3669 L479,942.3669 L475,882.5769 L471,942.3669 L94.59,942.3669 A0,0 0 0 0 94.59,942.3669" fill="#FEFCE8" style="stroke:#A16207;stroke-width:0.5;"/><path d="M845.4137,942.3669 L845.4137,952.3669 L855.4137,952.3669 L845.4137,942.3669" fill="#FEFCE8" style="stroke:#A16207;stroke-width:0.5;"/><text fill="#0F172A" font-family="Arial" font-size="17" lengthAdjust="spacing" textLength="557.5967" x="100.59" y="963.1467">1. &#1055;&#1086;&#1083;&#1100;&#1079;&#1086;&#1074;&#1072;&#1090;&#1077;&#1083;&#1100; &#1088;&#1072;&#1073;&#1086;&#1090;&#1072;&#1077;&#1090; &#1095;&#1077;&#1088;&#1077;&#1079; &#1074;&#1077;&#1073;-&#1080;&#1085;&#1090;&#1077;&#1088;&#1092;&#1077;&#1081;&#1089; &#1080;&#1083;&#1080; REST API.</text><text fill="#0F172A" font-family="Arial" font-size="17" lengthAdjust="spacing" textLength="636.3877" x="100.59" y="982.9357">2. API &#1080; worker &#1080;&#1089;&#1087;&#1086;&#1083;&#1100;&#1079;&#1091;&#1102;&#1090; PostgreSQL, Qdrant &#1080; &#1092;&#1072;&#1081;&#1083;&#1086;&#1074;&#1086;&#1077; &#1093;&#1088;&#1072;&#1085;&#1080;&#1083;&#1080;&#1097;&#1077;.</text><text fill="#0F172A" font-family="Arial" font-size="17" lengthAdjust="spacing" textLength="738.5537" x="100.59" y="1002.7248">3. Worker &#1074;&#1099;&#1079;&#1099;&#1074;&#1072;&#1077;&#1090; Docling, &#1083;&#1086;&#1082;&#1072;&#1083;&#1100;&#1085;&#1099;&#1081; TEI &#1080; &#1083;&#1086;&#1082;&#1072;&#1083;&#1100;&#1085;&#1099;&#1081; vLLM &#1087;&#1088;&#1080; local-&#1087;&#1088;&#1086;&#1092;&#1080;&#1083;&#1103;&#1093;.</text><text fill="#0F172A" font-family="Arial" font-size="17" lengthAdjust="spacing" textLength="613.8345" x="100.59" y="1022.5138">4. &#1055;&#1088;&#1080; cloud-&#1087;&#1088;&#1086;&#1092;&#1080;&#1083;&#1103;&#1093; &#1080;&#1089;&#1087;&#1086;&#1083;&#1100;&#1079;&#1091;&#1102;&#1090;&#1089;&#1103; &#1074;&#1085;&#1077;&#1096;&#1085;&#1080;&#1077; LLM &#1080; embedding API.</text><text fill="#0F172A" font-family="Arial" font-size="17" lengthAdjust="spacing" textLength="431.0513" x="100.59" y="1042.3029">5. API &#1080; worker &#1086;&#1090;&#1087;&#1088;&#1072;&#1074;&#1083;&#1103;&#1102;&#1090; GELF-&#1083;&#1086;&#1075;&#1080; &#1074; Graylog.</text><text fill="#0F172A" font-family="Arial" font-size="17" lengthAdjust="spacing" textLength="739.8237" x="100.59" y="1062.092">6. PostgreSQL, Qdrant, MinIO &#1080; &#1092;&#1072;&#1081;&#1083;&#1086;&#1074;&#1086;&#1077; &#1093;&#1088;&#1072;&#1085;&#1080;&#1083;&#1080;&#1097;&#1077; &#1089;&#1086;&#1093;&#1088;&#1072;&#1085;&#1103;&#1102;&#1090; &#1076;&#1072;&#1085;&#1085;&#1099;&#1077; &#1074; volumes.</text><text fill="#0F172A" font-family="Arial" font-size="17" lengthAdjust="spacing" textLength="506.605" x="100.59" y="1081.881">7. AI-&#1089;&#1077;&#1088;&#1074;&#1080;&#1089;&#1099; &#1080;&#1089;&#1087;&#1086;&#1083;&#1100;&#1079;&#1091;&#1102;&#1090; volume hf_cache &#1076;&#1083;&#1103; &#1084;&#1086;&#1076;&#1077;&#1083;&#1077;&#1081;.</text><text fill="#0F172A" font-family="Arial" font-size="17" lengthAdjust="spacing" textLength="640.1563" x="100.59" y="1101.6701">8. Graylog &#1093;&#1088;&#1072;&#1085;&#1080;&#1090; &#1082;&#1086;&#1085;&#1092;&#1080;&#1075;&#1091;&#1088;&#1072;&#1094;&#1080;&#1102; &#1080; &#1080;&#1085;&#1076;&#1077;&#1082;&#1089; &#1083;&#1086;&#1075;&#1086;&#1074; &#1074; &#1086;&#1090;&#1076;&#1077;&#1083;&#1100;&#1085;&#1099;&#1093; volumes.</text><text fill="#0F172A" font-family="Arial" font-size="17" lengthAdjust="spacing" textLength="5.4038" x="100.59" y="1121.4592">&#160;</text><text fill="#0F172A" font-family="Arial" font-size="17" lengthAdjust="spacing" textLength="219.5806" x="100.59" y="1141.2482">&#1055;&#1088;&#1086;&#1092;&#1080;&#1083;&#1100; &#1087;&#1086; &#1091;&#1084;&#1086;&#1083;&#1095;&#1072;&#1085;&#1080;&#1102;:</text><text fill="#0F172A" font-family="Arial" font-size="17" lengthAdjust="spacing" textLength="275.2788" x="100.59" y="1161.0373">LLM=cloud, EMBEDDING=cloud,</text><text fill="#0F172A" font-family="Arial" font-size="17" lengthAdjust="spacing" textLength="293.9639" x="100.59" y="1180.8263">DOCLING=local, POSTGRES=local,</text><text fill="#0F172A" font-family="Arial" font-size="17" lengthAdjust="spacing" textLength="398.1387" x="100.59" y="1200.6154">QDRANT=local, OBJECT_STORAGE=filesystem,</text><text fill="#0F172A" font-family="Arial" font-size="17" lengthAdjust="spacing" textLength="142.2837" x="100.59" y="1220.4045">GRAYLOG=local.</text></g><!--link user to app_tier--><g class="link" data-entity-1="ent0001" data-entity-2="ent0004" data-link-type="dependency" data-source-line="56" id="lnk10"><path d="M621,142.7669 C621,184.1269 621,238.0769 621,283.0169" fill="none" id="user-to-app_tier" style="stroke:#181818;stroke-width:1;"/><polygon fill="#181818" points="621,288.0169,625,279.0169,621,283.0169,617,279.0169,621,288.0169" style="stroke:#181818;stroke-width:1;stroke-linejoin:miter;stroke-miterlimit:10;"/><text fill="#000000" font-family="Arial" font-size="17" lengthAdjust="spacing" textLength="10.8159" x="610" y="211.1767">1</text></g><!--link app_tier to data_tier--><g class="link" data-entity-1="ent0004" data-entity-2="ent0005" data-link-type="dependency" data-source-line="57" id="lnk11"><path d="M537.23,417.6369 C537.23,450.0269 537.23,482.4169 537.23,482.4169 C537.23,482.4169 419.46,482.4169 319.72,482.4169" fill="none" id="app_tier-to-data_tier" style="stroke:#181818;stroke-width:1;"/><polygon fill="#181818" points="314.72,482.4169,323.72,486.4169,319.72,482.4169,323.72,478.4169,314.72,482.4169" style="stroke:#181818;stroke-width:1;stroke-linejoin:miter;stroke-miterlimit:10;"/><text fill="#000000" font-family="Arial" font-size="17" lengthAdjust="spacing" textLength="10.8159" x="447.36" y="478.1967">2</text></g><!--link app_tier to ai_tier--><g class="link" data-entity-1="ent0004" data-entity-2="ent0006" data-link-type="dependency" data-source-line="58" id="lnk12"><path d="M568.93,417.6869 C568.93,439.8969 568.93,459.7369 568.93,481.9469" fill="none" id="app_tier-to-ai_tier" style="stroke:#181818;stroke-width:1;"/><polygon fill="#181818" points="568.93,486.9469,572.93,477.9469,568.93,481.9469,564.93,477.9469,568.93,486.9469" style="stroke:#181818;stroke-width:1;stroke-linejoin:miter;stroke-miterlimit:10;"/><text fill="#000000" font-family="Arial" font-size="17" lengthAdjust="spacing" textLength="10.8159" x="557.93" y="448.0967">3</text></g><!--link app_tier to cloud_ai--><g class="link" data-entity-1="ent0004" data-entity-2="ent0009" data-link-type="dependency" data-source-line="59" id="lnk13"><path d="M736.76,385.4169 C879.37,385.4169 1103,385.4169 1103,385.4169 C1103,385.4169 1103,443.3569 1103,491.7869" fill="none" id="app_tier-to-cloud_ai" style="stroke:#181818;stroke-width:1;"/><polygon fill="#181818" points="1103,496.7869,1107,487.7869,1103,491.7869,1099,487.7869,1103,496.7869" style="stroke:#181818;stroke-width:1;stroke-linejoin:miter;stroke-miterlimit:10;"/><text fill="#000000" font-family="Arial" font-size="17" lengthAdjust="spacing" textLength="10.8159" x="964.56" y="381.1967">4</text></g><!--link app_tier to obs_tier--><g class="link" data-entity-1="ent0004" data-entity-2="ent0007" data-link-type="dependency" data-source-line="60" id="lnk14"><path d="M686.26,417.6869 C686.26,436.6069 686.26,452.4469 686.26,471.9369" fill="none" id="app_tier-to-obs_tier" style="stroke:#181818;stroke-width:1;stroke-dasharray:7,7;"/><polygon fill="#181818" points="686.26,476.9369,690.26,467.9369,686.26,471.9369,682.26,467.9369,686.26,476.9369" style="stroke:#181818;stroke-width:1;stroke-linejoin:miter;stroke-miterlimit:10;"/><text fill="#000000" font-family="Arial" font-size="17" lengthAdjust="spacing" textLength="10.8159" x="675.26" y="443.0867">5</text></g><!--link data_tier to volumes--><g class="link" data-entity-1="ent0005" data-entity-2="ent0008" data-link-type="dependency" data-source-line="61" id="lnk15"><path d="M314.77,622.4169 C365.58,622.4169 412.46,622.4169 412.46,622.4169 C412.46,622.4169 412.46,668.0169 412.46,701.8969" fill="none" id="data_tier-to-volumes" style="stroke:#181818;stroke-width:1;"/><polygon fill="#181818" points="412.46,706.8969,416.46,697.8969,412.46,701.8969,408.46,697.8969,412.46,706.8969" style="stroke:#181818;stroke-width:1;stroke-linejoin:miter;stroke-miterlimit:10;"/><text fill="#000000" font-family="Arial" font-size="17" lengthAdjust="spacing" textLength="10.8159" x="384.36" y="639.1967">6</text></g><!--link ai_tier to volumes--><g class="link" data-entity-1="ent0006" data-entity-2="ent0008" data-link-type="dependency" data-source-line="62" id="lnk16"><path d="M475,616.4569 C475,637.9569 475,678.4069 475,701.8569" fill="none" id="ai_tier-to-volumes" style="stroke:#181818;stroke-width:1;"/><polygon fill="#181818" points="475,706.8569,479,697.8569,475,701.8569,471,697.8569,475,706.8569" style="stroke:#181818;stroke-width:1;stroke-linejoin:miter;stroke-miterlimit:10;"/><text fill="#000000" font-family="Arial" font-size="17" lengthAdjust="spacing" textLength="10.8159" x="464" y="646.9367">7</text></g><!--link obs_tier to volumes--><g class="link" data-entity-1="ent0007" data-entity-2="ent0008" data-link-type="dependency" data-source-line="63" id="lnk17"><path d="M635.85,619.4169 C584.45,619.4169 537.54,619.4169 537.54,619.4169 C537.54,619.4169 537.54,666.6769 537.54,701.9669" fill="none" id="obs_tier-to-volumes" style="stroke:#181818;stroke-width:1;"/><polygon fill="#181818" points="537.54,706.9669,541.54,697.9669,537.54,701.9669,533.54,697.9669,537.54,706.9669" style="stroke:#181818;stroke-width:1;stroke-linejoin:miter;stroke-miterlimit:10;"/><text fill="#000000" font-family="Arial" font-size="17" lengthAdjust="spacing" textLength="10.8159" x="542.42" y="636.1967">8</text></g><!--link host to cloud_ai--><?plantuml-src ZLPjJ-D64Fw-ls95loOM0P80qfqKY1DHSRn6ggfIHKkyIImSRsgREz7g9E1AhnK8fAhV-w7gTruk9Rma_8NrF-hCs0aE174WWJspE_FiCy_CEh03HtBzb-xgStqLxiFVU_Wzv_HuhIzr9zmF3yDZU3hNFTqDp_X6ePmE3-3n83pK7NqV7ZCMg3OF5DzMGQ1QtB8zMGjivJBcxzXkMtYYnRT5RQVXgLtNMbIEylWt9Vf9hF2Rmb8VRBV1wyBnPSBZsAuCzjgIAozegeJ3adMnwmGbvGOheYLvmRE5Czw_QVyiUIQVSBO1aMZ8pM0FE434mcquCedPLPRalp3E5vw1doqLIeleKPublTWwbSrDcmjWnOInRRAKoKyLsCSaAX68RU6_4DfSB1LBsQUX9xDpkTpSgw5hZjgrNe2SAMLBSq_ZvcRoCxElGwuh1_Qy43Wgv9F0C_bizYi0kofuYMApj6ZEFWrRoEIc9lClX6MY5e1XGl-j-_ekF045zr6v95HuttBr1Iex_0GUKFO45pxVzQN769LwGl-h-wJhQDiPnsO8VuVswEdpBRUeQZl0WkasG92qkQdyWE17-wC5s1uTw9gJUUw9HjhVymFPekKWum_Asw4TWptw7u24-Jgw5vvm_G2lNNq7fl_GX3stvMwvZv7ITG_EBbrhn2ZQziWxvf4UPHNjTZMmyPIOTQY-Pvc_K8_tmkFmYEik804djBc-nREF16_3iHkUz4UCFrcUS8CHKyjsRJMAtNQaJwWGHmBMU3BwKS7q1TJb481q4LXXwGaSIzLWH3H6RBArBIthgTLnea88-zNKFKfx5vuIBp3eOcbqCNd34tkEQWmVqYtbDfIr_MYGZl03k-PBuTMQ8nW6Au2RWC2eRJz2m_b7H1GtMwmc_buvkotaUcm9qiZZbXkHNurUYFRukLclraIjAOV8gZ7Ks3-mIfyC12ZEY1qL3PG9_IVmqO5E03tg3bGWJJgbDj4tm13U4yS8SNdv7I-iGONCGG7mbS9IhAgm6SEUu-dqsw4q-JpFiE4BUeRo0DVKg2ik7ZYc4mwuErnm3fA0T-RHQnXlXpI39yiUmsF4-C3WoR51z55xdWstZpfc6QCXaFwXQLkMT7ya78cpqeIBRqPL7tARCVXBOued97-EauI7dv5Wy5vp4kX56aSIhWVQVmN3JNZ0QMfq-OQvMK7A3JPbu7_ic6WOSEhcXq7Iy5Du2h7N8Y5jhY-d-3gf27T0L2pi7I7hGyd38qBLYxA4V-YEmQOD_bqS-HA-4QxZxmH4N8nQCiKf14mGoWcpHT_mYacWndZUetgY2SWTLHDEB3D00sd3i_38O3D87AqWZf-j67jAwDmpf2ufOihLvJAfKuDbdv66PNYWmrzI1YIjR2wNqdI0App99Iz7RMImd366qHH_PxjBgrz9B0Vy_O4vJlWudC4F-M8P6InlO3VIZRCF4V6px7XyeQCjV30GCEHTTCNriO4XE-Z8OBF6u309Q8ZW5jRrYEShY8ZNw6_WEALIuWM9CMvHXn4jS3u4IlHzYOGTtor3x8mAEQZT2Tqu72xdUqB-EKvzEi-WL6-esYbklbimYyMbbN9iOCNLnMLy9Rsa-DhgPgKCFH2_i_NYHc6bCl2kBdnhBbQgcvLL-8mrtz1jHFCqnSeRXU-NL-Cu1eFxbJvEsFy0?></g></svg>